<?xml version="1.0" encoding="utf-8"?>
<!-- Generator: Adobe Illustrator 23.0.6, SVG Export Plug-In . SVG Version: 6.00 Build 0)  -->
<svg version="1.1" id="Layer_1" xmlns="http://www.w3.org/2000/svg" xmlns:xlink="http://www.w3.org/1999/xlink" x="0px" y="0px"
	 viewBox="0 0 1764 1351" style="enable-background:new 0 0 1764 1351;" xml:space="preserve">
<style type="text/css">
	.st0{fill-rule:evenodd;clip-rule:evenodd;fill:#D15D64;}
	.st1{fill-rule:evenodd;clip-rule:evenodd;fill:#FCD05C;}
	.st2{fill:none;stroke:#7B63AB;stroke-width:1.097;stroke-linecap:round;stroke-linejoin:round;}
	.st3{fill-rule:evenodd;clip-rule:evenodd;fill:#E98333;}
	.st4{fill:none;stroke:#E98333;stroke-width:1.097;stroke-linecap:round;stroke-linejoin:round;}
	.st5{fill-rule:evenodd;clip-rule:evenodd;fill:#00A959;}
	.st6{fill-rule:evenodd;clip-rule:evenodd;fill:#7B63AB;}
	.st7{filter:url(#Adobe_OpacityMaskFilter);}
	.st8{fill-rule:evenodd;clip-rule:evenodd;fill:#FFFFFF;}
	.st9{mask:url(#b_1_);fill-rule:evenodd;clip-rule:evenodd;fill:#7B63AB;}
	.st10{fill:none;stroke:#00A959;stroke-width:1.097;stroke-linecap:round;stroke-linejoin:round;}
	.st11{filter:url(#Adobe_OpacityMaskFilter_1_);}
	.st12{mask:url(#d_1_);fill-rule:evenodd;clip-rule:evenodd;fill:#D15D64;}
	.st13{filter:url(#Adobe_OpacityMaskFilter_2_);}
	.st14{mask:url(#f_1_);fill-rule:evenodd;clip-rule:evenodd;fill:#7B63AB;}
	.st15{opacity:0.5;}
	.st16{fill-rule:evenodd;clip-rule:evenodd;fill:#DBE7F0;}
	.st17{fill-rule:evenodd;clip-rule:evenodd;fill:#27363A;}
	.st18{fill-rule:evenodd;clip-rule:evenodd;fill:#4D595D;}
	.st19{fill:none;stroke:#DBE7F0;stroke-width:1.097;stroke-linecap:round;stroke-linejoin:round;}
	.st20{font-family:'ArialMT';}
	.st21{font-size:27.5484px;}
	.st22{font-size:10.7133px;}
</style>
<title>star-bg</title>
<path class="st0" d="M718,92.1l2.8,1.5c0.2,0.1,0.3,0.3,0.2,0.5c0,0.1-0.1,0.1-0.2,0.2l-2.8,1.5c-0.1,0-0.1,0.1-0.2,0.2l-1.5,2.8
	c-0.1,0.2-0.3,0.3-0.5,0.2c-0.1,0-0.1-0.1-0.2-0.2l-1.5-2.8c0-0.1-0.1-0.1-0.2-0.2l-2.8-1.5c-0.2-0.1-0.3-0.3-0.2-0.5
	c0-0.1,0.1-0.1,0.2-0.2l2.8-1.5c0.1,0,0.1-0.1,0.2-0.2l1.5-2.8c0.1-0.2,0.3-0.3,0.5-0.2c0.1,0,0.1,0.1,0.2,0.2l1.5,2.8
	C717.9,92,717.9,92.1,718,92.1"/>
<path class="st1" d="M239.1,166.7l1.4,0.7c0.2,0.1,0.3,0.3,0.2,0.5c0,0.1-0.1,0.1-0.2,0.2l-1.4,0.7c-0.1,0-0.1,0.1-0.2,0.2l-0.7,1.4
	c-0.1,0.2-0.3,0.3-0.5,0.2c-0.1,0-0.1-0.1-0.2-0.2l-0.7-1.4c0-0.1-0.1-0.1-0.2-0.2l-1.4-0.7c-0.2-0.1-0.3-0.3-0.2-0.5
	c0-0.1,0.1-0.1,0.2-0.2l1.4-0.7c0.1,0,0.1-0.1,0.2-0.2l0.7-1.4c0.1-0.2,0.3-0.3,0.5-0.2c0.1,0,0.1,0.1,0.2,0.2l0.7,1.4
	C238.9,166.6,239,166.7,239.1,166.7"/>
<path class="st2" d="M409.5,108l-1.5,1.5 M413.5,104l-1.5,1.5 M409.5,108.2c0.7,0.7,1.9,0.7,2.6,0c0.7-0.7,0.7-1.9,0-2.6
	s-1.9-0.7-2.6,0C408.8,106.3,408.8,107.4,409.5,108.2L409.5,108.2z"/>
<path class="st0" d="M962,138.1l2.8,1.5c0.2,0.1,0.3,0.3,0.2,0.5c0,0.1-0.1,0.1-0.2,0.2l-2.8,1.5c-0.1,0-0.1,0.1-0.2,0.2l-1.5,2.8
	c-0.1,0.2-0.3,0.3-0.5,0.2c-0.1,0-0.1-0.1-0.2-0.2l-1.5-2.8c0-0.1-0.1-0.1-0.2-0.2l-2.8-1.5c-0.2-0.1-0.3-0.3-0.2-0.5
	c0-0.1,0.1-0.1,0.2-0.2l2.8-1.5c0.1,0,0.1-0.1,0.2-0.2l1.5-2.8c0.1-0.2,0.3-0.3,0.5-0.2c0.1,0,0.1,0.1,0.2,0.2l1.5,2.8
	C961.9,138,961.9,138.1,962,138.1"/>
<path class="st3" d="M1145,177.1l2.8,1.5c0.2,0.1,0.3,0.3,0.2,0.5c0,0.1-0.1,0.1-0.2,0.2l-2.8,1.5c-0.1,0-0.1,0.1-0.2,0.2l-1.5,2.8
	c-0.1,0.2-0.3,0.3-0.5,0.2c-0.1,0-0.1-0.1-0.2-0.2l-1.5-2.8c0-0.1-0.1-0.1-0.2-0.2l-2.8-1.5c-0.2-0.1-0.3-0.3-0.2-0.5
	c0-0.1,0.1-0.1,0.2-0.2l2.8-1.5c0.1,0,0.1-0.1,0.2-0.2l1.5-2.8c0.1-0.2,0.3-0.3,0.5-0.2c0.1,0,0.1,0.1,0.2,0.2l1.5,2.8
	C1144.9,177,1144.9,177.1,1145,177.1"/>
<path class="st1" d="M1083.1,100.7l1.4,0.7c0.2,0.1,0.3,0.3,0.2,0.5c0,0.1-0.1,0.1-0.2,0.2l-1.4,0.7c-0.1,0-0.1,0.1-0.2,0.2
	l-0.7,1.4c-0.1,0.2-0.3,0.3-0.5,0.2c-0.1,0-0.1-0.1-0.2-0.2l-0.7-1.4c0-0.1-0.1-0.1-0.2-0.2l-1.4-0.7c-0.2-0.1-0.3-0.3-0.2-0.5
	c0-0.1,0.1-0.1,0.2-0.2l1.4-0.7c0.1,0,0.1-0.1,0.2-0.2l0.7-1.4c0.1-0.2,0.3-0.3,0.5-0.2c0.1,0,0.1,0.1,0.2,0.2l0.7,1.4
	C1082.9,100.6,1083,100.7,1083.1,100.7"/>
<path class="st0" d="M1206.8,253.9c0,1.6-1.3,2.9-2.9,2.9c-1.6,0-2.9-1.3-2.9-2.9s1.3-2.9,2.9-2.9
	C1205.5,251,1206.8,252.3,1206.8,253.9 M115,319.1l2.8,1.5c0.2,0.1,0.3,0.3,0.2,0.5c0,0.1-0.1,0.1-0.2,0.2l-2.8,1.5
	c-0.1,0-0.1,0.1-0.2,0.2l-1.5,2.8c-0.1,0.2-0.3,0.3-0.5,0.2c-0.1,0-0.1-0.1-0.2-0.2l-1.5-2.8c0-0.1-0.1-0.1-0.2-0.2l-2.8-1.5
	c-0.2-0.1-0.3-0.3-0.2-0.5c0-0.1,0.1-0.1,0.2-0.2l2.8-1.5c0.1,0,0.1-0.1,0.2-0.2l1.5-2.8c0.1-0.2,0.3-0.3,0.5-0.2
	c0.1,0,0.1,0.1,0.2,0.2l1.5,2.8C114.9,319,114.9,319.1,115,319.1"/>
<path class="st1" d="M206.1,452.7l1.4,0.7c0.2,0.1,0.3,0.3,0.2,0.5c0,0.1-0.1,0.1-0.2,0.2l-1.4,0.7c-0.1,0-0.1,0.1-0.2,0.2l-0.7,1.4
	c-0.1,0.2-0.3,0.3-0.5,0.2c-0.1,0-0.1-0.1-0.2-0.2l-0.7-1.4c0-0.1-0.1-0.1-0.2-0.2l-1.4-0.7c-0.2-0.1-0.3-0.3-0.2-0.5
	c0-0.1,0.1-0.1,0.2-0.2l1.4-0.7c0.1,0,0.1-0.1,0.2-0.2l0.7-1.4c0.1-0.2,0.3-0.3,0.5-0.2c0.1,0,0.1,0.1,0.2,0.2l0.7,1.4
	C205.9,452.6,206,452.7,206.1,452.7"/>
<path class="st0" d="M1662,527.1l2.8,1.5c0.2,0.1,0.3,0.3,0.2,0.5c0,0.1-0.1,0.1-0.2,0.2l-2.8,1.5c-0.1,0-0.1,0.1-0.2,0.2l-1.5,2.8
	c-0.1,0.2-0.3,0.3-0.5,0.2c-0.1,0-0.1-0.1-0.2-0.2l-1.5-2.8c0-0.1-0.1-0.1-0.2-0.2l-2.8-1.5c-0.2-0.1-0.3-0.3-0.2-0.5
	c0-0.1,0.1-0.1,0.2-0.2l2.8-1.5c0.1,0,0.1-0.1,0.2-0.2l1.5-2.8c0.1-0.2,0.3-0.3,0.5-0.2c0.1,0,0.1,0.1,0.2,0.2l1.5,2.8
	C1661.9,527,1661.9,527.1,1662,527.1 M1376.9,100.6l1.3,0.7c0.3,0.1,0.3,0.5,0,0.7l-1.3,0.7c-0.1,0-0.1,0.1-0.2,0.1l-0.7,1.3
	c-0.1,0.2-0.3,0.2-0.5,0.1c-0.1,0-0.1-0.1-0.1-0.1l-0.7-1.3c0-0.1-0.1-0.1-0.2-0.1l-1.3-0.7c-0.2-0.1-0.2-0.3-0.1-0.5
	c0-0.1,0.1-0.1,0.1-0.1l1.3-0.7c0.1,0,0.1-0.1,0.2-0.2l0.7-1.3c0.1-0.2,0.3-0.3,0.5-0.2c0.1,0,0.1,0.1,0.2,0.2l0.7,1.3
	C1376.8,100.6,1376.8,100.6,1376.9,100.6"/>
<path class="st1" d="M1634.1,382.7l1.4,0.7c0.2,0.1,0.3,0.3,0.2,0.5c0,0.1-0.1,0.1-0.2,0.2l-1.4,0.7c-0.1,0-0.1,0.1-0.2,0.2
	l-0.7,1.4c-0.1,0.2-0.3,0.3-0.5,0.2c-0.1,0-0.1-0.1-0.2-0.2l-0.7-1.4c0-0.1-0.1-0.1-0.2-0.2l-1.4-0.7c-0.2-0.1-0.3-0.3-0.2-0.5
	c0-0.1,0.1-0.1,0.2-0.2l1.4-0.7c0.1,0,0.1-0.1,0.2-0.2l0.7-1.4c0.1-0.2,0.3-0.3,0.5-0.2c0.1,0,0.1,0.1,0.2,0.2l0.7,1.4
	C1633.9,382.6,1634,382.7,1634.1,382.7"/>
<path class="st4" d="M411,385.9l3.6-0.9l-0.9,3.6L411,385.9z"/>
<path class="st5" d="M522.2,503l2,1.1l-2,1.1l-1.1,2l-1.1-2l-2-1.1l2-1.1l1.1-2L522.2,503z"/>
<path class="st3" d="M531,40.1l2.8,1.5c0.2,0.1,0.3,0.3,0.2,0.5c0,0.1-0.1,0.1-0.2,0.2l-2.8,1.5c-0.1,0-0.1,0.1-0.2,0.2l-1.5,2.8
	c-0.1,0.2-0.3,0.3-0.5,0.2c-0.1,0-0.1-0.1-0.2-0.2l-1.5-2.8c0-0.1-0.1-0.1-0.2-0.2l-2.8-1.5c-0.2-0.1-0.3-0.3-0.2-0.5
	c0-0.1,0.1-0.1,0.2-0.2l2.8-1.5c0.1,0,0.1-0.1,0.2-0.2l1.5-2.8c0.1-0.2,0.3-0.3,0.5-0.2c0.1,0,0.1,0.1,0.2,0.2l1.5,2.8
	C530.9,40,530.9,40.1,531,40.1"/>
<path class="st2" d="M653.9,202.3l-0.8-1.6c0-0.1-0.1-0.1-0.2-0.2l-1.6-0.8c-0.2-0.1-0.3-0.4-0.2-0.6c0-0.1,0.1-0.1,0.2-0.2l1.6-0.8
	c0.1,0,0.1-0.1,0.2-0.2l0.8-1.6c0.1-0.2,0.4-0.3,0.6-0.2c0.1,0,0.1,0.1,0.2,0.2l0.8,1.6c0,0.1,0.1,0.1,0.2,0.2l1.6,0.8
	c0.3,0.2,0.3,0.6,0,0.8l-1.6,0.8c-0.1,0-0.1,0.1-0.2,0.2l-0.8,1.6c-0.1,0.2-0.4,0.3-0.6,0.2C654,202.4,653.9,202.3,653.9,202.3
	L653.9,202.3z"/>
<path class="st0" d="M594,161.1l2.8,1.5c0.2,0.1,0.3,0.3,0.2,0.5c0,0.1-0.1,0.1-0.2,0.2l-2.8,1.5c-0.1,0-0.1,0.1-0.2,0.2l-1.5,2.8
	c-0.1,0.2-0.3,0.3-0.5,0.2c-0.1,0-0.1-0.1-0.2-0.2l-1.5-2.8c0-0.1-0.1-0.1-0.2-0.2l-2.8-1.5c-0.2-0.1-0.3-0.3-0.2-0.5
	c0-0.1,0.1-0.1,0.2-0.2l2.8-1.5c0.1,0,0.1-0.1,0.2-0.2l1.5-2.8c0.1-0.2,0.3-0.3,0.5-0.2c0.1,0,0.1,0.1,0.2,0.2l1.5,2.8
	C593.9,161,593.9,161.1,594,161.1"/>
<path class="st3" d="M178,127.1l2.8,1.5c0.2,0.1,0.3,0.3,0.2,0.5c0,0.1-0.1,0.1-0.2,0.2l-2.8,1.5c-0.1,0-0.1,0.1-0.2,0.2l-1.5,2.8
	c-0.1,0.2-0.3,0.3-0.5,0.2c-0.1,0-0.1-0.1-0.2-0.2l-1.5-2.8c0-0.1-0.1-0.1-0.2-0.2l-2.8-1.5c-0.2-0.1-0.3-0.3-0.2-0.5
	c0-0.1,0.1-0.1,0.2-0.2l2.8-1.5c0.1,0,0.1-0.1,0.2-0.2l1.5-2.8c0.1-0.2,0.3-0.3,0.5-0.2c0.1,0,0.1,0.1,0.2,0.2l1.5,2.8
	C177.9,127,177.9,127.1,178,127.1"/>
<path class="st0" d="M299.8,56.9c0,1.6-1.3,2.9-2.9,2.9s-2.9-1.3-2.9-2.9s1.3-2.9,2.9-2.9S299.8,55.3,299.8,56.9"/>
<path class="st2" d="M50.9,205.3l-0.8-1.6c0-0.1-0.1-0.1-0.2-0.2l-1.6-0.8c-0.2-0.1-0.3-0.4-0.2-0.6c0-0.1,0.1-0.1,0.2-0.2l1.6-0.8
	c0.1,0,0.1-0.1,0.2-0.2l0.8-1.6c0.1-0.2,0.4-0.3,0.6-0.2c0.1,0,0.1,0.1,0.2,0.2l0.8,1.6c0,0.1,0.1,0.1,0.2,0.2l1.6,0.8
	c0.3,0.2,0.3,0.6,0,0.8l-1.6,0.8c-0.1,0-0.1,0.1-0.2,0.2l-0.8,1.6c-0.1,0.2-0.4,0.3-0.6,0.2C51,205.4,50.9,205.3,50.9,205.3
	L50.9,205.3z"/>
<path class="st0" d="M1691,261.1l2.8,1.5c0.2,0.1,0.3,0.3,0.2,0.5c0,0.1-0.1,0.1-0.2,0.2l-2.8,1.5c-0.1,0-0.1,0.1-0.2,0.2l-1.5,2.8
	c-0.1,0.2-0.3,0.3-0.5,0.2c-0.1,0-0.1-0.1-0.2-0.2l-1.5-2.8c0-0.1-0.1-0.1-0.2-0.2l-2.8-1.5c-0.2-0.1-0.3-0.3-0.2-0.5
	c0-0.1,0.1-0.1,0.2-0.2l2.8-1.5c0.1,0,0.1-0.1,0.2-0.2l1.5-2.8c0.1-0.2,0.3-0.3,0.5-0.2c0.1,0,0.1,0.1,0.2,0.2l1.5,2.8
	C1690.9,261,1690.9,261.1,1691,261.1"/>
<path class="st6" d="M1637.1,223.7l1.4,0.7c0.2,0.1,0.3,0.3,0.2,0.5c0,0.1-0.1,0.1-0.2,0.2l-1.4,0.7c-0.1,0-0.1,0.1-0.2,0.2
	l-0.7,1.4c-0.1,0.2-0.3,0.3-0.5,0.2c-0.1,0-0.1-0.1-0.2-0.2l-0.7-1.4c0-0.1-0.1-0.1-0.2-0.2l-1.4-0.7c-0.2-0.1-0.3-0.3-0.2-0.5
	c0-0.1,0.1-0.1,0.2-0.2l1.4-0.7c0.1,0,0.1-0.1,0.2-0.2l0.7-1.4c0.1-0.2,0.3-0.3,0.5-0.2c0.1,0,0.1,0.1,0.2,0.2l0.7,1.4
	C1636.9,223.6,1637,223.7,1637.1,223.7"/>
<path class="st0" d="M1611.9,48.6l1.3,0.7c0.3,0.1,0.3,0.5,0,0.7l-1.3,0.7c-0.1,0-0.1,0.1-0.2,0.2l-0.7,1.3
	c-0.1,0.2-0.3,0.2-0.5,0.1c-0.1,0-0.1-0.1-0.1-0.1l-0.7-1.3c0-0.1-0.1-0.1-0.2-0.2l-1.3-0.7c-0.2-0.1-0.3-0.3-0.2-0.5
	c0-0.1,0.1-0.1,0.2-0.2l1.3-0.7c0.1,0,0.1-0.1,0.2-0.2l0.7-1.3c0.1-0.2,0.3-0.3,0.5-0.2c0.1,0,0.1,0.1,0.2,0.2l0.7,1.3
	C1611.8,48.6,1611.8,48.6,1611.9,48.6"/>
<path class="st1" d="M1663.1,116.7l1.4,0.7c0.2,0.1,0.3,0.3,0.2,0.5c0,0.1-0.1,0.1-0.2,0.2l-1.4,0.7c-0.1,0-0.1,0.1-0.2,0.2
	l-0.7,1.4c-0.1,0.2-0.3,0.3-0.5,0.2c-0.1,0-0.1-0.1-0.2-0.2l-0.7-1.4c0-0.1-0.1-0.1-0.2-0.2l-1.4-0.7c-0.2-0.1-0.3-0.3-0.2-0.5
	c0-0.1,0.1-0.1,0.2-0.2l1.4-0.7c0.1,0,0.1-0.1,0.2-0.2l0.7-1.4c0.1-0.2,0.3-0.3,0.5-0.2c0.1,0,0.1,0.1,0.2,0.2l0.7,1.4
	C1662.9,116.6,1663,116.7,1663.1,116.7"/>
<g transform="translate(1580 434)">
	<defs>
		<filter id="Adobe_OpacityMaskFilter" filterUnits="userSpaceOnUse" x="0.6" y="0.1" width="5.6" height="5.6">
			<feColorMatrix  type="matrix" values="1 0 0 0 0  0 1 0 0 0  0 0 1 0 0  0 0 0 1 0"/>
		</filter>
	</defs>
	<mask maskUnits="userSpaceOnUse" x="0.6" y="0.1" width="5.6" height="5.6" id="b_1_">
		<g class="st7">
			<path id="a_1_" class="st8" d="M6.2,0.1v5.6H0.6V0.1L6.2,0.1L6.2,0.1z"/>
		</g>
	</mask>
	<path class="st9" d="M4.7,1.8L6,2.5c0.2,0.1,0.3,0.3,0.2,0.5c0,0.1-0.1,0.1-0.2,0.2L4.7,4C4.6,4,4.5,4.1,4.5,4.1L3.8,5.5
		C3.7,5.7,3.4,5.7,3.2,5.6c-0.1,0-0.1-0.1-0.2-0.2L2.3,4.1C2.3,4.1,2.2,4,2.2,4L0.8,3.2C0.6,3.1,0.6,2.9,0.7,2.7
		c0-0.1,0.1-0.1,0.2-0.2l1.4-0.7c0.1,0,0.1-0.1,0.2-0.2l0.7-1.4C3.2,0.1,3.4,0,3.6,0.1c0.1,0,0.1,0.1,0.2,0.2l0.7,1.4
		C4.5,1.7,4.6,1.8,4.7,1.8"/>
</g>
<path class="st1" d="M1385,483.1l2.8,1.5c0.2,0.1,0.3,0.3,0.2,0.5c0,0.1-0.1,0.1-0.2,0.2l-2.8,1.5c-0.1,0-0.1,0.1-0.2,0.2l-1.5,2.8
	c-0.1,0.2-0.3,0.3-0.5,0.2c-0.1,0-0.1-0.1-0.2-0.2l-1.5-2.8c0-0.1-0.1-0.1-0.2-0.2l-2.8-1.5c-0.2-0.1-0.3-0.3-0.2-0.5
	c0-0.1,0.1-0.1,0.2-0.2l2.8-1.5c0.1,0,0.1-0.1,0.2-0.2l1.5-2.8c0.1-0.2,0.3-0.3,0.5-0.2c0.1,0,0.1,0.1,0.2,0.2l1.5,2.8
	C1384.9,483,1384.9,483.1,1385,483.1"/>
<path class="st0" d="M1273.9,338.6l1.3,0.7c0.3,0.1,0.3,0.5,0,0.7l-1.3,0.7c-0.1,0-0.1,0.1-0.2,0.1l-0.7,1.3
	c-0.1,0.2-0.3,0.2-0.5,0.1c-0.1,0-0.1-0.1-0.1-0.1l-0.7-1.3c0-0.1-0.1-0.1-0.2-0.1l-1.3-0.7c-0.2-0.1-0.2-0.3-0.1-0.5
	c0-0.1,0.1-0.1,0.1-0.1l1.3-0.7c0.1,0,0.1-0.1,0.2-0.1l0.7-1.3c0.1-0.2,0.3-0.3,0.5-0.2c0.1,0,0.1,0.1,0.2,0.2l0.7,1.3
	C1273.8,338.6,1273.8,338.6,1273.9,338.6"/>
<path class="st1" d="M1494.1,406.7l1.4,0.7c0.2,0.1,0.3,0.3,0.2,0.5c0,0.1-0.1,0.1-0.2,0.2l-1.4,0.7c-0.1,0-0.1,0.1-0.2,0.2
	l-0.7,1.4c-0.1,0.2-0.3,0.3-0.5,0.2c-0.1,0-0.1-0.1-0.2-0.2l-0.7-1.4c0-0.1-0.1-0.1-0.2-0.2l-1.4-0.7c-0.2-0.1-0.3-0.3-0.2-0.5
	c0-0.1,0.1-0.1,0.2-0.2l1.4-0.7c0.1,0,0.1-0.1,0.2-0.2l0.7-1.4c0.1-0.2,0.3-0.3,0.5-0.2c0.1,0,0.1,0.1,0.2,0.2l0.7,1.4
	C1493.9,406.6,1494,406.7,1494.1,406.7"/>
<path class="st10" d="M1712,450.5l1.8-0.5l1.8,0.5l-0.5-1.8l0.5-1.8l-1.8,0.5l-1.8-0.5l0.5,1.8L1712,450.5z"/>
<g transform="translate(1598 622)">
	<defs>
		<filter id="Adobe_OpacityMaskFilter_1_" filterUnits="userSpaceOnUse" x="0.7" y="0.7" width="9.9" height="9.9">
			<feColorMatrix  type="matrix" values="1 0 0 0 0  0 1 0 0 0  0 0 1 0 0  0 0 0 1 0"/>
		</filter>
	</defs>
	<mask maskUnits="userSpaceOnUse" x="0.7" y="0.7" width="9.9" height="9.9" id="d_1_">
		<g class="st11">
			<path id="c_1_" class="st8" d="M0.7,0.7h9.9v9.9H0.7V0.7z"/>
		</g>
	</mask>
	<path class="st12" d="M7.6,3.8l2.8,1.5c0.2,0.1,0.3,0.3,0.2,0.5c0,0.1-0.1,0.1-0.2,0.2L7.6,7.5c-0.1,0-0.1,0.1-0.2,0.2L6,10.4
		c-0.1,0.2-0.3,0.3-0.5,0.2c-0.1,0-0.1-0.1-0.2-0.2L3.8,7.7c0-0.1-0.1-0.1-0.2-0.2L0.9,6C0.7,5.9,0.6,5.7,0.7,5.5
		c0-0.1,0.1-0.1,0.2-0.2l2.8-1.5c0.1,0,0.1-0.1,0.2-0.2l1.5-2.8c0.1-0.2,0.3-0.3,0.5-0.2c0.1,0,0.1,0.1,0.2,0.2l1.5,2.8
		C7.5,3.7,7.6,3.8,7.6,3.8"/>
</g>
<g>
	<path class="st4" d="M70.5,513l-1.5,1.5 M74.5,509l-1.5,1.5 M70.5,513.2c0.7,0.7,1.9,0.7,2.6,0c0.7-0.7,0.7-1.9,0-2.6
		s-1.9-0.7-2.6,0C69.8,511.3,69.8,512.4,70.5,513.2z"/>
</g>
<path class="st1" d="M239.1,1200.9l1.4-0.7c0.2-0.1,0.3-0.3,0.2-0.5c0-0.1-0.1-0.1-0.2-0.2l-1.4-0.7c-0.1,0-0.1-0.1-0.2-0.2
	l-0.7-1.4c-0.1-0.2-0.3-0.3-0.5-0.2c-0.1,0-0.1,0.1-0.2,0.2l-0.7,1.4c0,0.1-0.1,0.1-0.2,0.2l-1.4,0.7c-0.2,0.1-0.3,0.3-0.2,0.5
	c0,0.1,0.1,0.1,0.2,0.2l1.4,0.7c0.1,0,0.1,0.1,0.2,0.2l0.7,1.4c0.1,0.3,0.5,0.3,0.7,0l0.7-1.4C238.9,1201,239,1200.9,239.1,1200.9"
	/>
<path class="st0" d="M1206.8,1132.9c0-1.6-1.3-2.9-2.9-2.9c-1.6,0-2.9,1.3-2.9,2.9l0,0c0,1.6,1.3,2.9,2.9,2.9
	C1205.5,1135.8,1206.8,1134.5,1206.8,1132.9 M115,1035.8l2.8-1.5c0.2-0.1,0.3-0.3,0.2-0.5c0-0.1-0.1-0.1-0.2-0.2l-2.8-1.5
	c-0.1,0-0.1-0.1-0.2-0.2l-1.5-2.8c-0.1-0.2-0.3-0.3-0.5-0.2c-0.1,0-0.1,0.1-0.2,0.2l-1.5,2.8c0,0.1-0.1,0.1-0.2,0.2l-2.8,1.5
	c-0.2,0.1-0.3,0.3-0.2,0.5c0,0.1,0.1,0.1,0.2,0.2l2.8,1.5c0.1,0,0.1,0.1,0.2,0.2l1.5,2.8c0.2,0.3,0.5,0.3,0.7,0l1.5-2.8
	C114.9,1035.9,114.9,1035.9,115,1035.8"/>
<path class="st1" d="M206.1,793.9l1.4-0.7c0.2-0.1,0.3-0.3,0.2-0.5c0-0.1-0.1-0.1-0.2-0.2l-1.4-0.7c-0.1,0-0.1-0.1-0.2-0.2l-0.7-1.4
	c-0.1-0.2-0.3-0.3-0.5-0.2c-0.1,0-0.1,0.1-0.2,0.2l-0.7,1.4c0,0.1-0.1,0.1-0.2,0.2l-1.4,0.7c-0.2,0.1-0.3,0.3-0.2,0.5
	c0,0.1,0.1,0.1,0.2,0.2l1.4,0.7c0.1,0,0.1,0.1,0.2,0.2l0.7,1.4c0.1,0.3,0.5,0.3,0.7,0l0.7-1.4C205.9,794,206,793.9,206.1,793.9"/>
<path class="st0" d="M1456,1061.8l2.8-1.5c0.2-0.1,0.3-0.3,0.2-0.5c0-0.1-0.1-0.1-0.2-0.2l-2.8-1.5c-0.1,0-0.1-0.1-0.2-0.2l-1.5-2.8
	c-0.1-0.2-0.3-0.3-0.5-0.2c-0.1,0-0.1,0.1-0.2,0.2l-1.5,2.8c0,0.1-0.1,0.1-0.2,0.2l-2.8,1.5c-0.2,0.1-0.3,0.3-0.2,0.5
	c0,0.1,0.1,0.1,0.2,0.2l2.8,1.5c0.1,0,0.1,0.1,0.2,0.2l1.5,2.8c0.2,0.3,0.5,0.3,0.7,0l1.5-2.8
	C1455.9,1061.9,1455.9,1061.9,1456,1061.8"/>
<path class="st6" d="M1402.1,1085.9l1.4-0.7c0.2-0.1,0.3-0.3,0.2-0.5c0-0.1-0.1-0.1-0.2-0.2l-1.4-0.7c-0.1,0-0.1-0.1-0.2-0.2
	l-0.7-1.4c-0.1-0.2-0.3-0.3-0.5-0.2c-0.1,0-0.1,0.1-0.2,0.2l-0.7,1.4c0,0.1-0.1,0.1-0.2,0.2l-1.4,0.7c-0.2,0.1-0.3,0.3-0.2,0.5
	c0,0.1,0.1,0.1,0.2,0.2l1.4,0.7c0.1,0,0.1,0.1,0.2,0.2l0.7,1.4c0.2,0.3,0.5,0.3,0.7,0l0.7-1.4
	C1401.9,1086,1402,1085.9,1402.1,1085.9"/>
<path class="st4" d="M411,894.7l3.6,0.9l-0.9-3.6L411,894.7z"/>
<path class="st5" d="M522.2,745.2l2-1.1l-2-1.1l-1.1-2l-1.1,2l-2,1.1l2,1.1l1.1,2L522.2,745.2z"/>
<path class="st3" d="M178,1225.8l2.8-1.5c0.2-0.1,0.3-0.3,0.2-0.5c0-0.1-0.1-0.1-0.2-0.2l-2.8-1.5c-0.1,0-0.1-0.1-0.2-0.2l-1.5-2.8
	c-0.1-0.2-0.3-0.3-0.5-0.2c-0.1,0-0.1,0.1-0.2,0.2l-1.5,2.8c0,0.1-0.1,0.1-0.2,0.2l-2.8,1.5c-0.2,0.1-0.3,0.3-0.2,0.5
	c0,0.1,0.1,0.1,0.2,0.2l2.8,1.5c0.1,0,0.1,0.1,0.2,0.2l1.5,2.8c0.1,0.3,0.5,0.3,0.7,0l1.5-2.8C177.9,1225.9,177.9,1225.9,178,1225.8
	"/>
<path class="st0" d="M299.8,1325.9c0-1.6-1.3-2.9-2.9-2.9s-2.9,1.3-2.9,2.9c0,1.6,1.3,2.9,2.9,2.9S299.8,1327.5,299.8,1325.9"/>
<path class="st2" d="M50.9,1174.2l-0.8,1.6c0,0.1-0.1,0.1-0.2,0.2l-1.6,0.8c-0.2,0.1-0.3,0.4-0.2,0.6c0,0.1,0.1,0.1,0.2,0.2l1.6,0.8
	c0.1,0,0.1,0.1,0.2,0.2l0.8,1.6c0.2,0.3,0.6,0.3,0.8,0l0.8-1.6c0-0.1,0.1-0.1,0.2-0.2l1.6-0.8c0.2-0.1,0.3-0.4,0.2-0.6
	c0-0.1-0.1-0.1-0.2-0.2l-1.6-0.8c-0.1,0-0.1-0.1-0.2-0.2l-0.8-1.6c-0.1-0.2-0.4-0.3-0.6-0.2C51,1174.1,50.9,1174.2,50.9,1174.2
	L50.9,1174.2z"/>
<path class="st0" d="M1691,1110.8l2.8-1.5c0.2-0.1,0.3-0.3,0.2-0.5c0-0.1-0.1-0.1-0.2-0.2l-2.8-1.5c-0.1,0-0.1-0.1-0.2-0.2l-1.5-2.8
	c-0.1-0.2-0.3-0.3-0.5-0.2c-0.1,0-0.1,0.1-0.2,0.2l-1.5,2.8c0,0.1-0.1,0.1-0.2,0.2l-2.8,1.5c-0.2,0.1-0.3,0.3-0.2,0.5
	c0,0.1,0.1,0.1,0.2,0.2l2.8,1.5c0.1,0,0.1,0.1,0.2,0.2l1.5,2.8c0.2,0.3,0.5,0.3,0.7,0l1.5-2.8
	C1690.9,1110.9,1690.9,1110.9,1691,1110.8"/>
<path class="st6" d="M1637.1,1155.9l1.4-0.7c0.2-0.1,0.3-0.3,0.2-0.5c0-0.1-0.1-0.1-0.2-0.2l-1.4-0.7c-0.1,0-0.1-0.1-0.2-0.2
	l-0.7-1.4c-0.1-0.2-0.3-0.3-0.5-0.2c-0.1,0-0.1,0.1-0.2,0.2l-0.7,1.4c0,0.1-0.1,0.1-0.2,0.2l-1.4,0.7c-0.2,0.1-0.3,0.3-0.2,0.5
	c0,0.1,0.1,0.1,0.2,0.2l1.4,0.7c0.1,0,0.1,0.1,0.2,0.2l0.7,1.4c0.2,0.3,0.5,0.3,0.7,0l0.7-1.4
	C1636.9,1156,1637,1155.9,1637.1,1155.9"/>
<path class="st0" d="M1611.9,1349.7l1.3-0.7c0.2-0.1,0.2-0.3,0.1-0.5c0-0.1-0.1-0.1-0.1-0.1l-1.3-0.7c-0.1,0-0.1-0.1-0.2-0.2
	l-0.7-1.3c-0.1-0.2-0.3-0.2-0.5-0.1c-0.1,0-0.1,0.1-0.1,0.1l-0.7,1.3c0,0.1-0.1,0.1-0.2,0.2l-1.3,0.7c-0.2,0.1-0.3,0.3-0.2,0.5
	c0,0.1,0.1,0.1,0.2,0.2l1.3,0.7c0.1,0,0.1,0.1,0.2,0.2l0.7,1.3c0.1,0.2,0.3,0.3,0.5,0.2c0.1,0,0.1-0.1,0.2-0.2l0.7-1.3
	C1611.8,1349.8,1611.8,1349.8,1611.9,1349.7"/>
<path class="st1" d="M1663.1,1249.9l1.4-0.7c0.2-0.1,0.3-0.3,0.2-0.5c0-0.1-0.1-0.1-0.2-0.2l-1.4-0.7c-0.1,0-0.1-0.1-0.2-0.2
	l-0.7-1.4c-0.1-0.2-0.3-0.3-0.5-0.2c-0.1,0-0.1,0.1-0.2,0.2l-0.7,1.4c0,0.1-0.1,0.1-0.2,0.2l-1.4,0.7c-0.2,0.1-0.3,0.3-0.2,0.5
	c0,0.1,0.1,0.1,0.2,0.2l1.4,0.7c0.1,0,0.1,0.1,0.2,0.2l0.7,1.4c0.2,0.3,0.5,0.3,0.7,0l0.7-1.4
	C1662.9,1250,1663,1249.9,1663.1,1249.9"/>
<g transform="matrix(1 0 0 -1 1587 986)">
	<defs>
		<filter id="Adobe_OpacityMaskFilter_2_" filterUnits="userSpaceOnUse" x="0.6" y="-5.7" width="5.6" height="5.6">
			<feColorMatrix  type="matrix" values="1 0 0 0 0  0 1 0 0 0  0 0 1 0 0  0 0 0 1 0"/>
		</filter>
	</defs>
	<mask maskUnits="userSpaceOnUse" x="0.6" y="-5.7" width="5.6" height="5.6" id="f_1_">
		<g class="st13">
			<path id="e_1_" class="st8" d="M6.2,0.1v5.6H0.6V0.1L6.2,0.1L6.2,0.1z"/>
		</g>
	</mask>
	<path class="st14" d="M4.7,1.8L6,2.5c0.2,0.1,0.3,0.3,0.2,0.5c0,0.1-0.1,0.1-0.2,0.2L4.7,4C4.6,4,4.5,4.1,4.5,4.1L3.8,5.5
		C3.7,5.7,3.4,5.7,3.2,5.6c-0.1,0-0.1-0.1-0.2-0.2L2.3,4.1C2.3,4.1,2.2,4,2.2,4L0.8,3.2C0.6,3.1,0.6,2.9,0.7,2.7
		c0-0.1,0.1-0.1,0.2-0.2l1.4-0.7c0.1,0,0.1-0.1,0.2-0.2l0.7-1.4C3.2,0.1,3.4,0,3.6,0.1c0.1,0,0.1,0.1,0.2,0.2l0.7,1.4
		C4.5,1.7,4.6,1.8,4.7,1.8"/>
</g>
<g>
	<path class="st2" d="M1164,915l2.8-2.8 M1156,923l2.8-2.8 M1161.6,912.9c0-1-5.5,4.5-4.5,4.5c-1,0,4.5,5.5,4.5,4.5
		c0,1,5.5-4.5,4.5-4.5C1167.1,917.4,1161.6,911.9,1161.6,912.9L1161.6,912.9z"/>
</g>
<path class="st1" d="M1385,770.8l2.8-1.5c0.2-0.1,0.3-0.3,0.2-0.5c0-0.1-0.1-0.1-0.2-0.2l-2.8-1.5c-0.1,0-0.1-0.1-0.2-0.2l-1.5-2.8
	c-0.1-0.2-0.3-0.3-0.5-0.2c-0.1,0-0.1,0.1-0.2,0.2l-1.5,2.8c0,0.1-0.1,0.1-0.2,0.2l-2.8,1.5c-0.2,0.1-0.3,0.3-0.2,0.5
	c0,0.1,0.1,0.1,0.2,0.2l2.8,1.5c0.1,0,0.1,0.1,0.2,0.2l1.5,2.8c0.2,0.3,0.5,0.3,0.7,0l1.5-2.8C1384.9,770.9,1384.9,770.9,1385,770.8
	"/>
<path class="st0" d="M1273.9,962.7l1.3-0.7c0.2-0.1,0.2-0.3,0.1-0.5c0-0.1-0.1-0.1-0.1-0.1l-1.3-0.7c-0.1,0-0.1-0.1-0.2-0.2
	l-0.7-1.3c-0.1-0.2-0.3-0.2-0.5-0.1c-0.1,0-0.1,0.1-0.1,0.1l-0.7,1.3c0,0.1-0.1,0.1-0.2,0.2l-1.3,0.7c-0.2,0.1-0.3,0.3-0.2,0.5
	c0,0.1,0.1,0.1,0.2,0.2l1.3,0.7c0.1,0,0.1,0.1,0.2,0.2l0.7,1.3c0.1,0.2,0.3,0.3,0.5,0.2c0.1,0,0.1-0.1,0.2-0.2l0.7-1.3
	C1273.8,962.8,1273.8,962.8,1273.9,962.7"/>
<path class="st1" d="M1494.1,873.9l1.4-0.7c0.2-0.1,0.3-0.3,0.2-0.5c0-0.1-0.1-0.1-0.2-0.2l-1.4-0.7c-0.1,0-0.1-0.1-0.2-0.2
	l-0.7-1.4c-0.1-0.2-0.3-0.3-0.5-0.2c-0.1,0-0.1,0.1-0.2,0.2l-0.7,1.4c0,0.1-0.1,0.1-0.2,0.2l-1.4,0.7c-0.2,0.1-0.3,0.3-0.2,0.5
	c0,0.1,0.1,0.1,0.2,0.2l1.4,0.7c0.1,0,0.1,0.1,0.2,0.2l0.7,1.4c0.2,0.3,0.5,0.3,0.7,0l0.7-1.4C1493.9,874,1494,873.9,1494.1,873.9"
	/>
<path class="st10" d="M1712,812l1.8,0.5l1.8-0.5l-0.5,1.8l0.5,1.8l-1.8-0.5l-1.8,0.5l0.5-1.8L1712,812z"/>
<g>
	<path class="st4" d="M70.5,721l-1.5-1.5 M74.5,725l-1.5-1.5 M70.5,720.8c0.7-0.7,1.9-0.7,2.6,0c0.7,0.7,0.7,1.9,0,2.6
		s-1.9,0.7-2.6,0C69.8,722.7,69.8,721.6,70.5,720.8L70.5,720.8z"/>
</g>
<g class="st15">
	<path class="st16" d="M373.2,442.8c4.3,3.6,4.9,10,1.2,14.3c-2.5,2.9-6.3,4.2-10.1,3.4c-1.2,1.7-1.8,3.4-1.5,4.9
		c0.2,0.8-0.4,0.7-0.7,0.4c-1.4-1.8-3-4.6-2.9-8.1c-3.6-3.7-3.8-9.6-0.5-13.6C362.5,439.7,369,439.2,373.2,442.8"/>
	<path class="st17" d="M370.3,449.4h-1.2l0-0.6c0-0.8-0.7-3-1.8-3c-0.4,0-0.7,0.2-0.9,0.5c-0.2,0.2-0.3,0.5-0.3,0.9
		c0.1,0.9,0.2,1.4-0.4,2c-0.6,0.7-0.9,0.9-1.4,0.9h-1.2c-0.6,0-1.2,0.6-1.2,1.2v2.4c0,0.6,0.6,1.2,1.2,1.2h1l0.9,0.5
		c0.1,0.1,0.2,0.1,0.3,0.1h3.8c0.7,0,1.7-0.3,1.8-1.1l0.6-3.6c0,0,0-0.1,0-0.1C371.5,449.9,371,449.4,370.3,449.4L370.3,449.4
		L370.3,449.4z M370.3,454.2c0,0.4-0.8,0.6-1.2,0.6h-3.8l-1-0.6v-3.6c0.8,0,1.3-0.5,1.9-1.1c0.7-0.8,0.7-1.5,0.5-2.5
		c0-0.3,0.3-0.6,0.6-0.6c0.5,0,1.2,1.6,1.2,2.4l0,0.6c0,0.4,0.2,0.6,0.6,0.6h1.2c0.4,0,0.6,0.2,0.6,0.6L370.3,454.2L370.3,454.2
		L370.3,454.2z"/>
	<path class="st18" d="M400.6,483.6c0-4.5-1.6-8.7-4.2-11.9c-2.1-2.2-4.4-0.8-5.1,9.5c-0.8,12.4-7.3,4.1-12.5,10
		c-5.2,5.8-17.3-4.8-14.2,1.4c3.2,6,9.6,10.1,16.9,10.1C392,502.7,400.6,494.1,400.6,483.6"/>
	<path class="st19" d="M381.4,464.5c10.6,0,19.1,8.6,19.1,19.1c0,10.6-8.6,19.1-19.1,19.1s-19.1-8.6-19.1-19.1
		C362.3,473,370.9,464.5,381.4,464.5L381.4,464.5z"/>
	<path class="st19" d="M381.4,464.5c10.6,0,19.1,8.6,19.1,19.1c0,10.6-8.6,19.1-19.1,19.1s-19.1-8.6-19.1-19.1
		C362.3,473,370.9,464.5,381.4,464.5L381.4,464.5z"/>
	<path class="st19" d="M363.8,476.1c3.7,1.6,8.1,3.1,11.8,3.1c7.6,0,9.3-4.6,18.3-4.8c1.6,0,3.1,0,4.4-0.1 M374,501.2
		c1.4-3.5,4.2-8.5,9.7-11.3c6.5-3.3,11.2-0.6,16.1-0.8"/>
	<path class="st19" d="M365.4,493.9c2.9-0.4,7.8-1.7,11.8-5.7c6.2-6.2,7.9-6.4,11.7-6.4c3.1,0,7.7,3.2,11.6,3.4 M373.7,466.1
		c4,0.6,8.8,1.9,11.9,4.4c2.4,2,6.5,1.8,10.6,1 M369.8,468.5c1.5,0.3,2.8,0.7,3.7,0.9c2.9,0.9,5.5,1.3,4.7,3.3
		c-0.9,2.6-5.3,1.1-8.2,0.2c-1-0.3-2.1-0.9-3.3-1.5 M362.5,481.4c3.8,0.5,9.1,1.8,9.7,4.8c0.4,2-3.9,3.2-8.7,3.8 M376.5,502.1
		c3.3-3.5,11.5-10.6,21.1-8.3h0"/>
</g>
<g class="st15">
	<path class="st18" d="M1532.1,302.4c-40.5-52.8-44,39.2-122.5,23.7c22,27.9,56.1,45.8,94.4,45.8c66.4,0,120.2-53.8,120.2-120.2
		c0-39.4-18.9-74.3-48.2-96.2l-5,2C1593,184.8,1551.6,327.8,1532.1,302.4"/>
	<path class="st19" d="M1383.8,249.9c0.1-7.8,1-15.8,2.7-23.6 M1428.9,345.3c-3-2.4-5.8-4.9-8.5-7.5 M1543.9,364.7
		c-9.9,3.5-20.2,5.7-30.7,6.5 M1617.3,212.7c1.5,4.5,2.8,9.1,3.8,13.8 M1582.9,161.3c3.6,3.2,7,6.5,10.2,10.1 M1483.7,133.3
		c7.6-1.3,15.3-1.9,23-1.7"/>
	<path class="st17" d="M1429.2,347.4c4.5,4,10,7.7,16.6,10.8c0.3,0.1,0.5,0.3,0.7,0.6c0.7,1.1,3.4,4,4.3,4.9
		c0.2,0.2,0.4,0.3,0.6,0.4l8.8,3.2c0.3,0.1,0.5,0.3,0.7,0.5l5.7,6.5c0.4,0.4,0.9,0.6,1.5,0.5l6.1-1.1c0.2,0,0.4,0,0.6,0l4.3,1
		c0.2,0,0.4,0.1,0.7,0l5-0.9c0.2,0,0.4,0,0.6,0l9.5,2c0.3,0.1,0.7,0,1-0.1l5-2.3c0.2-0.1,0.5-0.2,0.7-0.2l7.9,0
		c0.3,0,0.6-0.1,0.9-0.2l5-3.1c1.1-0.7,0.6-2.3-0.7-2.2l-3.9,0.1c-0.3,0-0.5,0-0.8-0.2l-9.5-4.5c-0.3-0.2-0.7-0.2-1.1-0.1l-5.4,1.3
		c-0.4,0.1-0.8,0-1.1-0.1l-15.3-7.6c-0.2-0.1-0.3-0.1-0.5-0.1l-12.3-1.8c-0.3,0-0.5-0.1-0.7-0.3l-9.9-7.4c-0.3-0.2-0.7-0.3-1-0.3
		l-11.7,0.3c-0.1,0-0.2,0-0.4,0l-10.6-2.2C1429,344.2,1428,346.3,1429.2,347.4"/>
	<path class="st19" d="M1429.2,347.4c4.5,4,10,7.7,16.6,10.8c0.3,0.1,0.5,0.3,0.7,0.6c0.7,1.1,3.4,4,4.3,4.9
		c0.2,0.2,0.4,0.3,0.6,0.4l8.8,3.2c0.3,0.1,0.5,0.3,0.7,0.5l5.7,6.5c0.4,0.4,0.9,0.6,1.5,0.5l6.1-1.1c0.2,0,0.4,0,0.6,0l4.3,1
		c0.2,0,0.4,0.1,0.7,0l5-0.9c0.2,0,0.4,0,0.6,0l9.5,2c0.3,0.1,0.7,0,1-0.1l5-2.3c0.2-0.1,0.5-0.2,0.7-0.2l7.9,0
		c0.3,0,0.6-0.1,0.9-0.2l5-3.1c1.1-0.7,0.6-2.3-0.7-2.2l-3.9,0.1c-0.3,0-0.5,0-0.8-0.2l-9.5-4.5c-0.3-0.2-0.7-0.2-1.1-0.1l-5.4,1.3
		c-0.4,0.1-0.8,0-1.1-0.1l-15.3-7.6c-0.2-0.1-0.3-0.1-0.5-0.1l-12.3-1.8c-0.3,0-0.5-0.1-0.7-0.3l-9.9-7.4c-0.3-0.2-0.7-0.3-1-0.3
		l-11.7,0.3c-0.1,0-0.2,0-0.4,0l-10.6-2.2C1429,344.2,1428,346.3,1429.2,347.4L1429.2,347.4z"/>
	<path class="st17" d="M1595.7,171.7c8.5,9.6,19.7,26.2,22.9,39.2c0.1,0.5,0,1.1-0.4,1.5c-3.7,3.9-21.4,20.3-23.3,22
		c-0.1,0.1-0.2,0.2-0.4,0.3l-10.5,5.1c-0.1,0.1-0.3,0.1-0.4,0.1l-5.5,1.1c-0.4,0.1-0.8,0.3-1,0.7l-6.5,9.3c-0.5,0.7-1.4,0.9-2.1,0.5
		l-24.4-13.6c-0.4-0.2-0.7-0.7-0.8-1.2l-3.1-20c-0.1-0.7,0.2-1.3,0.8-1.7l15.9-8.9c0.4-0.2,0.7-0.6,0.8-1l6.7-27
		c0.2-0.6,0.6-1.1,1.3-1.2l28.7-5.7C1594.8,171,1595.4,171.2,1595.7,171.7"/>
	<path class="st19" d="M1595.7,171.7c8.5,9.6,19.7,26.2,22.9,39.2c0.1,0.5,0,1.1-0.4,1.5c-3.7,3.9-21.4,20.3-23.3,22
		c-0.1,0.1-0.2,0.2-0.4,0.3l-10.5,5.1c-0.1,0.1-0.3,0.1-0.4,0.1l-5.5,1.1c-0.4,0.1-0.8,0.3-1,0.7l-6.5,9.3c-0.5,0.7-1.4,0.9-2.1,0.5
		l-24.4-13.6c-0.4-0.2-0.7-0.7-0.8-1.2l-3.1-20c-0.1-0.7,0.2-1.3,0.8-1.7l15.9-8.9c0.4-0.2,0.7-0.6,0.8-1l6.7-27
		c0.2-0.6,0.6-1.1,1.3-1.2l28.7-5.7C1594.8,171,1595.4,171.2,1595.7,171.7L1595.7,171.7z"/>
	<path class="st17" d="M1383.8,277.4c-1.9-8.6-2.7-17.4-2.6-26.2c0-1.4,1.7-2.1,2.7-1.2l7.9,6.6c0.3,0.3,0.8,0.4,1.2,0.4l12.9-1.5
		c0.4,0,0.7,0,1.1,0.2l15.9,9.9c0.2,0.1,0.4,0.2,0.5,0.2l16.2,3.2c0.4,0.1,0.8,0,1.1-0.2l14-7.5c0.7-0.4,1.5-0.2,2,0.4l10.2,11.4
		c0.2,0.3,0.4,0.6,0.4,1l1.9,27.8c0,0.5-0.2,1-0.5,1.3l-13.4,12.2c-0.2,0.2-0.4,0.5-0.5,0.8l-3.9,13.9c-0.2,0.6-0.7,1.1-1.3,1.2
		l-16.9,2.5c-0.2,0-0.3,0-0.5,0l-7.2-1c-0.7-0.1-1.3,0.2-1.6,0.8c-0.5,0.9-1.4,2.3-2.1,3.5c-0.5,0.8-1.5,1-2.3,0.6
		c-0.1-0.1-0.2-0.1-0.3-0.2c-7.5-6.7-13.8-14.1-19-22h21.6c7,0-3.5-3.7-11-3.2c-1,0.1-2,0.1-3,0.2c-0.3-2.4-2.8-6.5-8.6-6.6
		c0.4-0.6,0.8-1.2,1.1-1.9C1411.2,285.1,1396.4,275.3,1383.8,277.4L1383.8,277.4z"/>
	<path class="st19" d="M1399.8,315.4c5.2,7.9,11.5,15.3,19,22c0.7,0.6,1.7,0.6,2.3-0.1c0.1-0.1,0.1-0.2,0.2-0.3
		c0.7-1.2,1.5-2.6,2.1-3.5c0.3-0.6,1-0.9,1.6-0.8l7.2,1c0.2,0,0.3,0,0.5,0l16.9-2.5c0.6-0.1,1.2-0.6,1.3-1.2l3.9-13.9
		c0.1-0.3,0.2-0.6,0.5-0.8l13.4-12.2c0.4-0.3,0.6-0.8,0.5-1.3l-1.9-27.8c0-0.4-0.2-0.7-0.4-1l-10.2-11.4c-0.5-0.6-1.3-0.7-2-0.4
		l-14,7.5c-0.3,0.2-0.7,0.2-1.1,0.2l-16.2-3.2c-0.2,0-0.4-0.1-0.5-0.2l-15.9-9.9c-0.3-0.2-0.7-0.3-1.1-0.2l-12.9,1.5
		c-0.4,0.1-0.9-0.1-1.2-0.4l-7.9-6.6c-1.1-0.9-2.7-0.2-2.7,1.2c-0.1,8.8,0.7,17.6,2.6,26.2 M1481.8,131.9
		c-40.3,6.9-84.5,37.8-96.6,92.7c-0.3,1.2,0.8,2.2,2,2c1.2-0.3,2.6-0.6,3.5-0.8c0.6-0.1,1.2,0,1.6,0.5l9,10c0.4,0.4,1,0.6,1.6,0.5
		l23.5-5c0.4-0.1,0.8-0.3,1-0.6l14.7-20.4c0.4-0.6,0.4-1.5-0.1-2l-7.5-8.4c-0.3-0.4-0.5-0.9-0.4-1.4l2.4-13.2c0.1-0.5,0.4-1,0.9-1.2
		l14.2-6.5c0.8-0.4,1.8,0,2.2,0.8c0.1,0.2,0.1,0.4,0.1,0.6l0.7,11.1c0,0.4,0.2,0.8,0.5,1.1l19.4,18.4c0.4,0.4,1,0.5,1.5,0.4
		l16.5-4.4c0.2,0,0.3-0.1,0.5-0.1c2.1,0.1,17.4,0.8,17.6,0.3c0.2-0.5,1.7-16,2-18.7c0-0.3,0.1-0.5,0.3-0.8l9.5-13.7
		c0.4-0.6,0.4-1.4-0.1-2l-16.1-19.3c-0.2-0.2-0.4-0.4-0.7-0.5l-19.9-7.7c-0.6-0.2-0.9-0.7-1-1.3c-0.3-1.9-0.8-6.3-1-8.9
		c-0.1-0.9-0.9-1.6-1.8-1.5C1481.9,131.8,1481.9,131.9,1481.8,131.9L1481.8,131.9z"/>
	<path class="st17" d="M1620.3,227.3l-4.9,11.1c-0.2,0.4-0.6,0.8-1,0.9l-12.2,3.6c-0.3,0.1-0.5,0.2-0.7,0.5l-10.9,11.8
		c-0.3,0.4-0.5,0.8-0.4,1.3l2.1,16.6c0.1,0.5-0.1,0.9-0.4,1.3l-9.2,10.6c-0.3,0.4-0.8,0.6-1.3,0.6L1565,285c-0.9,0-1.6,0.7-1.7,1.5
		l-1.1,19.2c0,0.2-0.1,0.4-0.1,0.6l-7.6,17.1c-0.2,0.4-0.2,0.9,0,1.3l6,14.8c0.2,0.5,0.2,1-0.1,1.4l-8.3,14.7
		c-0.1,0.1-0.2,0.3-0.3,0.4c-0.8,0.8-4.7,4.5-7.5,7.4c-1.1,1.2,0,3.1,1.6,2.7c26.2-6.3,91.2-51.3,77.6-138.5
		C1623.2,226.1,1621,225.8,1620.3,227.3"/>
	<path class="st19" d="M1620.3,227.3l-4.9,11.1c-0.2,0.4-0.6,0.8-1,0.9l-12.2,3.6c-0.3,0.1-0.5,0.2-0.7,0.5l-10.9,11.8
		c-0.3,0.4-0.5,0.8-0.4,1.3l2.1,16.6c0.1,0.5-0.1,0.9-0.4,1.3l-9.2,10.6c-0.3,0.4-0.8,0.6-1.3,0.6L1565,285c-0.9,0-1.6,0.7-1.7,1.5
		l-1.1,19.2c0,0.2-0.1,0.4-0.1,0.6l-7.6,17.1c-0.2,0.4-0.2,0.9,0,1.3l6,14.8c0.2,0.5,0.2,1-0.1,1.4l-8.3,14.7
		c-0.1,0.1-0.2,0.3-0.3,0.4c-0.8,0.8-4.7,4.5-7.5,7.4c-1.1,1.2,0,3.1,1.6,2.7c26.2-6.3,91.2-51.3,77.6-138.5
		C1623.2,226.1,1621,225.8,1620.3,227.3L1620.3,227.3z M1508.3,129.9l14.2-0.8c0.4,0,0.8,0.1,1.1,0.3l2.2,1.7
		c0.4,0.3,0.9,0.4,1.4,0.3l8.7-2.1c0.4-0.1,0.9,0,1.3,0.2l3.6,2.3c0.3,0.2,0.8,0.3,1.2,0.2l5.5-1c0.3-0.1,0.6,0,0.9,0.1l1.9,0.8
		c0.4,0.1,0.7,0.4,0.8,0.8l1.8,3.6c0.2,0.5,0.7,0.8,1.2,0.9l3.8,0.7c0.4,0.1,0.7,0.3,1,0.6l2.8,3.6c0.1,0.1,0.2,0.2,0.4,0.3l6.4,4.3
		c0.2,0.1,0.4,0.3,0.5,0.5c0.4,0.8,1.5,2.7,1.8,2.9c0.3,0.3,9.9,8.1,12.6,10.3c0.3,0.2,0.2,0.7-0.2,0.8c-0.9,0.2-2.2,0.5-2.9,0.6
		c-0.2,0-0.5,0-0.7-0.1l-8.7-4.1c-0.1-0.1-0.2-0.1-0.3-0.1l-9.5-2.2c-0.2,0-0.4-0.1-0.6,0l-9.6,1.3c-0.4,0.1-0.8,0-1.1-0.3l-14.6-10
		c-0.2-0.1-0.3-0.2-0.5-0.2l-16.9-4.4c-0.3-0.1-0.7-0.3-0.9-0.6l-4.4-5.7c-0.2-0.2-0.4-0.4-0.6-0.5l-4.2-1.9
		C1506.1,132.3,1506.6,130,1508.3,129.9L1508.3,129.9z"/>
	<path class="st16" d="M1350.3,152.8c10.9-3.6,22.7,2.2,26.4,13.2c2.6,7.7,0.4,15.8-4.9,21.2c1.7,3.8,3.9,6.8,7,7.9
		c1.6,0.6,0.8,1.4-0.1,1.5c-4.6,0.5-11.3,0.3-17.3-3.7c-10.3,2.3-20.8-3.5-24.3-13.7C1333.5,168.3,1339.4,156.4,1350.3,152.8"/>
	<path class="st17" d="M1363.8,167.3c-0.7-0.8-1.6-1.3-2.9-1.3c-1.3,0-2.2,0.6-2.9,1.3c-0.2,0.2-0.4,0.5-0.6,0.6
		c-0.2,0.3-0.6,0.3-0.9,0.1c0,0-0.1-0.1-0.1-0.1c-0.2-0.2-0.3-0.4-0.6-0.6c-0.7-0.8-1.5-1.3-2.9-1.3c-1.2,0.1-2.2,0.5-2.9,1.3
		c-0.7,0.8-1,1.7-1.1,2.6c0,0.7,0.1,2,0.9,3.5c0.7,1.5,2.9,3.7,6.6,6.7c0.2,0.2,0.6,0.2,0.8,0c3.7-3,5.9-5.2,6.6-6.7
		c0.8-1.5,0.9-2.9,0.9-3.5C1364.9,169,1364.5,168.1,1363.8,167.3L1363.8,167.3L1363.8,167.3z"/>
	<path class="st19" d="M1616.8,204.9h69.6c11.2,0,6.4-4.1-7.7-2.9c-0.7,0.1-1.4,0.1-2.1,0.2c-1.6-1.7-5.5-3.8-9.3-2.6
		c-0.6-4.6-8.2-10.1-15.4-5.3c-0.5-7.1-7.7-13.9-15.2-7.8c2.2-11.5-0.8-24.2-18.3-22.6c-10.8,0.9-15.7,6.5-17.2,13.3 M1410.4,312.2
		c-1,0.1-2,0.1-3,0.2c-0.3-2.4-2.8-6.5-8.6-6.6c0.4-0.6,0.8-1.2,1.1-1.9c16.6-27.6-23-35.7-29.2-15.5c-1.3,4.3-1.8,8.5-1.8,12.2
		c-2-1.3-4.7-2.1-8.3-2.1c-10,0-13.3,8.8-12.3,13c-1.8-1.1-3.8-2.2-8.3-1.8c-8.6,0.8-17.2,5.7-4.1,5.7h85.6
		C1428.4,315.4,1417.9,311.7,1410.4,312.2L1410.4,312.2z"/>
</g>
<g>
	<image style="overflow:visible;" width="217" height="218" xlink:href="21F8071A.png"  transform="matrix(1 0 0 1 179 214)">
	</image>
</g>
<g>
	<image style="overflow:visible;" width="208" height="151" xlink:href="21F8071B.png"  transform="matrix(1 0 0 1 179 969)">
	</image>
</g>
<text transform="matrix(1 0 0 1 1127.1427 76.0997)" class="st20 st21">Python Anaconda</text>
<text transform="matrix(1 0 0 1 1127.1427 88.9997)" class="st20 st22">by tonyleekorea</text>
</svg>
